<?xml version="1.0" standalone="no"?>
<!DOCTYPE svg PUBLIC "-//W3C//DTD SVG 20010904//EN"
 "http://www.w3.org/TR/2001/REC-SVG-20010904/DTD/svg10.dtd">
<svg version="1.0" xmlns="http://www.w3.org/2000/svg"
 width="96.000000pt" height="96.000000pt" viewBox="0 0 96.000000 96.000000"
 preserveAspectRatio="xMidYMid meet">
<metadata>
Created by potrace 1.11, written by Peter Selinger 2001-2013
</metadata>
<g transform="translate(0.000000,96.000000) scale(0.100000,-0.100000)"
fill="#000000" stroke="none">
<path d="M455 902 c-6 -4 -35 -57 -64 -118 l-54 -112 -101 -1 c-131 0 -170 -9
-174 -40 -3 -19 17 -43 96 -118 l101 -94 -25 -52 c-13 -29 -24 -58 -24 -65 0
-7 -9 -32 -20 -54 -49 -101 5 -166 103 -124 18 7 55 31 83 53 28 23 64 48 81
56 27 15 32 14 59 -2 16 -10 42 -30 58 -45 123 -116 209 -99 208 42 0 48 -20
183 -27 191 -3 2 27 37 65 78 69 74 96 131 72 155 -5 5 -67 10 -137 11 -102 2
-129 5 -136 17 -4 8 -24 49 -44 90 -59 119 -90 154 -120 132z"/>
</g>
</svg>
